<?xml version="1.0" encoding="iso-8859-1"?>
<!-- Generator: Adobe Illustrator 19.0.0, SVG Export Plug-In . SVG Version: 6.00 Build 0)  -->
<svg version="1.1" id="Layer_1" xmlns="http://www.w3.org/2000/svg" xmlns:xlink="http://www.w3.org/1999/xlink" x="0px" y="0px"
	 viewBox="0 0 369.409 369.409" style="enable-background:new 0 0 369.409 369.409;" xml:space="preserve">
<g id="XMLID_874_">
	<g id="XMLID_875_">
		<g id="XMLID_882_">
			<g id="XMLID_1849_">
				<g id="XMLID_1854_">
					<path id="XMLID_1856_" style="fill:#5FD2DB;" d="M114.817,90.986c19.27,17.697,57.647,11.145,57.647,11.145
						s7.134-35.243-12.136-52.94s-57.647-11.145-57.647-11.145S95.547,73.289,114.817,90.986z"/>
					<path id="XMLID_1855_" style="fill:#5FD2DB;" d="M139.182,129.195c27.252,0,49.344-29.553,49.344-29.553
						s-22.092-29.553-49.344-29.553S89.838,99.642,89.838,99.642S111.93,129.195,139.182,129.195z"/>
				</g>
				<g id="XMLID_1850_">
					<g id="XMLID_1851_">
						<path id="XMLID_1853_" style="fill:#5FD2DB;" d="M254.594,90.986c-19.27,17.697-57.647,11.145-57.647,11.145
							s-7.134-35.243,12.136-52.94s57.647-11.145,57.647-11.145S273.864,73.289,254.594,90.986z"/>
						<path id="XMLID_1852_" style="fill:#5FD2DB;" d="M230.229,129.195c-27.252,0-49.344-29.553-49.344-29.553
							s22.092-29.553,49.344-29.553s49.344,29.553,49.344,29.553S257.481,129.195,230.229,129.195z"/>
					</g>
				</g>
			</g>
		</g>
		<path id="XMLID_889_" style="fill:#5FD2DB;" d="M221.713,52.112c0,28.781-37.008,52.112-37.008,52.112
			s-37.008-23.331-37.008-52.112S184.705,0,184.705,0S221.713,23.331,221.713,52.112z"/>
	</g>
	<path id="XMLID_1800_" style="fill:#FF5959;" d="M310.277,239.201L231.639,345.72c-23.318,31.586-70.55,31.586-93.868,0
		L59.133,239.201c-41.707-56.494-1.374-136.403,68.847-136.403h113.449C311.651,102.797,351.984,182.707,310.277,239.201z"/>
	<g id="XMLID_890_">
		<circle id="XMLID_891_" style="fill:#FFFEB9;" cx="87.994" cy="179.52" r="15.82"/>
		<circle id="XMLID_892_" style="fill:#FFFEB9;" cx="152.468" cy="179.52" r="15.82"/>
		<circle id="XMLID_893_" style="fill:#FFFEB9;" cx="216.942" cy="179.52" r="15.82"/>
		<circle id="XMLID_894_" style="fill:#FFFEB9;" cx="281.417" cy="179.52" r="15.82"/>
	</g>
	<g id="XMLID_895_">
		<circle id="XMLID_896_" style="fill:#FFFEB9;" cx="120.231" cy="240.26" r="15.82"/>
		<circle id="XMLID_897_" style="fill:#FFFEB9;" cx="184.705" cy="240.26" r="15.82"/>
		<circle id="XMLID_898_" style="fill:#FFFEB9;" cx="249.18" cy="240.26" r="15.82"/>
	</g>
	<g id="XMLID_899_">
		<circle id="XMLID_900_" style="fill:#FFFEB9;" cx="152.468" cy="301" r="15.82"/>
		<circle id="XMLID_901_" style="fill:#FFFEB9;" cx="216.942" cy="301" r="15.82"/>
	</g>
</g>
<g>
</g>
<g>
</g>
<g>
</g>
<g>
</g>
<g>
</g>
<g>
</g>
<g>
</g>
<g>
</g>
<g>
</g>
<g>
</g>
<g>
</g>
<g>
</g>
<g>
</g>
<g>
</g>
<g>
</g>
</svg>
