<?xml version="1.0" encoding="iso-8859-1"?>
<!-- Generator: Adobe Illustrator 19.0.0, SVG Export Plug-In . SVG Version: 6.00 Build 0)  -->
<svg version="1.1" id="Layer_1" xmlns="http://www.w3.org/2000/svg" xmlns:xlink="http://www.w3.org/1999/xlink" x="0px" y="0px"
	 viewBox="0 0 340 340" style="enable-background:new 0 0 340 340;" xml:space="preserve">
<g id="XMLID_6_">
	<g id="XMLID_24_">
		<path id="XMLID_25_" style="fill:#802812;" d="M90,220c0,0,14.625,54.606,61.999,29C161.25,244,178,230,178,230L90,220z"/>
	</g>
	<g id="XMLID_7_">
		<path id="XMLID_23_" style="fill:#802812;" d="M170,220l14,10c0,0,37.667,15,57.667,5S268,190,228,180L170,220z"/>
	</g>
	<g id="XMLID_8_">
		<path id="XMLID_9_" style="fill:#802812;" d="M90,120c0,0,14.625-54.606,61.999-29C161.25,96,178,110,178,110L90,120z"/>
	</g>
	<g id="XMLID_10_">
		<path id="XMLID_11_" style="fill:#802812;" d="M170,120l14-10c0,0,37.667-15,57.667-5S268,150,228,160L170,120z"/>
	</g>
	<g id="XMLID_12_">
		<path id="XMLID_13_" style="fill:#FF5023;" d="M270,170c0,20-58.203,70-130,70C40,240,0,170,0,170s40-70,140-70
			C211.797,100,270,150,270,170z"/>
	</g>
	<path id="XMLID_14_" style="fill:#FF9811;" d="M140,240C40,240,0,170,0,170s40-70,140-70"/>
	<g id="XMLID_15_">
		<circle id="XMLID_16_" style="fill:#802812;" cx="39.999" cy="160" r="10"/>
	</g>
	<g id="XMLID_17_">
		<path id="XMLID_18_" style="fill:#FF5023;" d="M310,130l-80,20v40l80,20c0,0,30-10,30-40S310,130,310,130z"/>
	</g>
	<g id="XMLID_61_">
		<path id="XMLID_20_" style="fill:#FF9811;" d="M150,170c0,24.636,6.889,47.693,18.841,67.348
			c7.08-1.294,13.938-3.023,20.526-5.087C177.16,214.544,170,193.094,170,170s7.16-44.544,19.367-62.26
			c-6.589-2.065-13.447-3.793-20.526-5.087C156.889,122.307,150,145.364,150,170z"/>
	</g>
	<g id="XMLID_59_">
		<path id="XMLID_21_" style="fill:#FFDA44;" d="M77.392,110.419c-7.062,2.528-13.598,5.398-19.618,8.485
			C71.437,131.688,80,149.858,80,170s-8.563,38.312-22.226,51.095c6.02,3.087,12.556,5.958,19.618,8.485
			C91.451,213.697,100,192.83,100,170S91.451,126.303,77.392,110.419z"/>
	</g>
	<g id="XMLID_57_">
		<path id="XMLID_22_" style="fill:#FF9811;" d="M250,170c0,9.02,1.34,17.733,3.821,25.955l23.92,5.98
			C272.806,192.352,270,181.501,270,170s2.806-22.352,7.741-31.936l-23.92,5.98C251.34,152.267,250,160.98,250,170z"/>
	</g>
</g>
<g>
</g>
<g>
</g>
<g>
</g>
<g>
</g>
<g>
</g>
<g>
</g>
<g>
</g>
<g>
</g>
<g>
</g>
<g>
</g>
<g>
</g>
<g>
</g>
<g>
</g>
<g>
</g>
<g>
</g>
</svg>
