<?xml version="1.0" encoding="iso-8859-1"?>
<!-- Generator: Adobe Illustrator 19.0.0, SVG Export Plug-In . SVG Version: 6.00 Build 0)  -->
<svg version="1.1" id="Layer_1" xmlns="http://www.w3.org/2000/svg" xmlns:xlink="http://www.w3.org/1999/xlink" x="0px" y="0px"
	 viewBox="0 0 512 512" style="enable-background:new 0 0 512 512;" xml:space="preserve">
<g>
	<path style="fill:#E95353;" d="M509.702,297.128c-2.482,12.824-6.958,25.333-13.425,37.07c-0.107,0.192-0.218,0.384-0.33,0.573
		c-0.234,0.389-0.466,0.797-0.701,1.231c-0.09,0.174-0.188,0.346-0.286,0.517c-3.664,6.331-7.885,12.361-12.553,17.924
		c-0.092,0.111-0.185,0.221-0.281,0.332c-13.096,14.83-31.289,27.399-54.074,37.351c-0.229,0.103-0.464,0.199-0.7,0.288
		c-0.037,0.016-0.078,0.03-0.117,0.047c-31.064,11.712-62.087,20.353-92.203,25.686c-101.729,21.095-174.425,0.358-217.498-20.762
		c-44.886-22.01-67.995-48.96-71.25-52.931c-14.509-16.478-25.899-35.292-33.855-55.929c-5.423-14.07-8.997-28.401-10.866-42.732
		c-3.876,29.657-0.626,60.658,10.866,90.475c7.956,20.635,19.346,39.451,33.855,55.929c3.254,3.971,26.364,30.921,71.25,52.931
		c43.073,21.12,115.769,41.856,217.498,20.762c6.836-1.21,13.72-2.591,20.641-4.141l28.518-6.478
		c13.914-4.011,29.034-9.786,43.045-15.068c0.039-0.017,0.08-0.031,0.117-0.047c0.236-0.089,0.471-0.185,0.7-0.288
		c22.785-9.952,40.977-22.521,54.074-37.351c0.096-0.111,0.19-0.221,0.281-0.332c4.669-5.561,8.889-11.592,12.553-17.924
		c0.098-0.171,0.195-0.343,0.286-0.517c0.236-0.435,0.467-0.844,0.701-1.231c0.113-0.189,0.223-0.381,0.33-0.573
		C510.673,355.815,515.256,325.861,509.702,297.128z"/>
	<path style="fill:#E95353;" d="M473.999,240.397c-13.127-34.046-43.888-57.11-80.271-60.189c-0.284-0.025-0.569-0.057-0.897-0.105
		c-41.396-5.349-69.964-32.664-83.304-48.463c-0.196-0.234-0.386-0.475-0.558-0.704c-1.446-1.947-3.02-3.957-4.71-6.009l-0.29-0.346
		c-29.343-35.343-72.491-55.614-118.38-55.614c-18.97,0-37.6,3.473-55.373,10.324c-79.183,30.525-118.77,119.778-88.246,198.961
		c6.641,17.229,16.155,32.915,28.285,46.633c0.173,0.194,0.341,0.395,0.529,0.634c0.204,0.253,20.849,25.425,62.419,45.392
		c35.458,17.031,75.292,25.666,118.396,25.666c24.459,0,50.35-2.796,76.959-8.311l0.652-0.131
		c28.15-4.964,57.229-13.049,86.429-24.028l0.142-0.058c17.98-7.91,32.663-17.921,42.512-29.014
		c3.375-4.044,6.445-8.426,9.171-13.104c0.392-0.723,0.785-1.416,1.225-2.161C482.075,295.299,484.008,266.369,473.999,240.397z"/>
</g>
<path style="fill:#D63434;" d="M503.542,229.009c-17.202-44.626-59.058-76.108-106.708-80.313
	c-31.498-4.098-54.178-26.997-62.794-37.105c-1.54-2.058-3.169-4.14-4.859-6.205c-0.519-0.735-1.091-1.422-1.709-2.057
	c-51.008-60.554-134.675-82.093-208.643-53.578C23.355,86.552-24.377,194.167,12.426,289.641
	c7.956,20.635,19.346,39.451,33.855,55.929c3.254,3.971,26.364,30.921,71.25,52.931c43.073,21.12,115.769,41.856,217.498,20.762
	c30.116-5.332,61.139-13.975,92.203-25.686c0.039-0.017,0.08-0.031,0.117-0.047c0.236-0.089,0.471-0.185,0.7-0.288
	c22.785-9.952,40.977-22.521,54.074-37.351c0.096-0.111,0.19-0.221,0.281-0.332c4.669-5.561,8.889-11.592,12.553-17.924
	c0.098-0.171,0.195-0.343,0.286-0.517c0.236-0.435,0.467-0.844,0.701-1.231c0.113-0.189,0.223-0.381,0.33-0.573
	C514.315,302.58,516.966,263.832,503.542,229.009z M466.241,318.428c-0.412,0.696-0.824,1.419-1.233,2.176
	c-2.601,4.465-5.578,8.715-8.858,12.64c-9.538,10.74-23.875,20.498-41.492,28.25c-29.039,10.919-57.948,18.957-85.932,23.892
	c-0.165,0.03-0.329,0.061-0.491,0.094c-0.08,0.018-0.167,0.037-0.251,0.055c-73.187,15.17-138.308,9.405-193.574-17.141
	c-41.205-19.79-61.305-44.443-61.456-44.63c-0.199-0.253-0.405-0.5-0.617-0.738c-11.904-13.461-21.244-28.865-27.765-45.78
	c-29.971-77.747,8.899-165.38,86.646-195.351c60.573-23.348,129.133-5.48,170.603,44.468c0.051,0.059,0.102,0.117,0.15,0.176
	c0.052,0.066,0.107,0.131,0.163,0.198c1.609,1.956,3.157,3.929,4.592,5.861c0.212,0.284,0.434,0.563,0.663,0.835
	c13.615,16.127,42.761,43.968,85.084,49.436c0.336,0.049,0.673,0.087,1.009,0.116c35.319,2.99,65.173,25.372,77.909,58.413
	C481.114,266.622,479.233,294.678,466.241,318.428z"/>
<path style="opacity:0.15;fill:#202020;enable-background:new    ;" d="M153.393,368.395c-41.205-19.79-61.305-44.443-61.456-44.63
	c-0.199-0.253-0.405-0.5-0.617-0.738c-11.904-13.461-21.244-28.865-27.765-45.78c-29.971-77.747,8.899-165.38,86.646-195.351
	c14.704-5.668,29.88-8.887,45.023-9.827c-21.326-1.365-43.139,1.784-64.003,9.827C53.475,111.867,14.604,199.5,44.574,277.247
	c6.52,16.915,15.861,32.319,27.765,45.78c0.212,0.238,0.419,0.485,0.617,0.738c0.152,0.188,20.252,24.84,61.456,44.63
	c37.824,18.167,80.267,26.596,126.751,25.247C222.054,392.482,186.006,384.06,153.393,368.395z"/>
<path style="fill:#FFF1CE;" d="M310.06,246.257c-61.067-0.299-90.175-35.846-97.783-46.99c-0.744-1.253-1.534-2.511-2.355-3.741
	c-1.655-2.482-4.969-3.227-7.526-1.685c-2.556,1.54-3.449,4.817-2.026,7.441c0.087,0.161,0.882,1.61,2.471,3.962
	c19.804,33.763,1.195,66.589-7.927,79.355c-1.212,1.412-2.332,2.874-3.333,4.352c-1.657,2.445-1.121,5.76,1.224,7.559
	c1.01,0.775,2.207,1.153,3.396,1.153c1.568,0,3.122-0.658,4.222-1.928c0.056-0.065,1.352-1.565,3.259-4.206
	c26.335-29.988,105.811-34.077,106.613-34.117c3.022-0.143,5.381-2.668,5.317-5.694C315.548,248.697,313.086,246.273,310.06,246.257
	z"/>
<g>
</g>
<g>
</g>
<g>
</g>
<g>
</g>
<g>
</g>
<g>
</g>
<g>
</g>
<g>
</g>
<g>
</g>
<g>
</g>
<g>
</g>
<g>
</g>
<g>
</g>
<g>
</g>
<g>
</g>
</svg>
