<?xml version="1.0" encoding="iso-8859-1"?>
<!-- Generator: Adobe Illustrator 19.0.0, SVG Export Plug-In . SVG Version: 6.00 Build 0)  -->
<svg version="1.1" id="Layer_1" xmlns="http://www.w3.org/2000/svg" xmlns:xlink="http://www.w3.org/1999/xlink" x="0px" y="0px"
	 viewBox="0 0 501.029 501.029" style="enable-background:new 0 0 501.029 501.029;" xml:space="preserve">
<path style="fill:#FF7058;" d="M479.869,228.833c0,126.433-458.71,126.433-458.71,0S123.559,0,249.992,0
	C377.469,0,479.869,102.4,479.869,228.833z"/>
<path style="fill:#CDD6E0;" d="M304.327,486.922c-18.808,18.808-87.771,18.808-105.535,0
	c-24.033-24.033-25.078-89.861-19.853-151.51c0-5.224,1.045-10.449,1.045-15.673c45.976,5.225,97.175,5.225,143.151,0
	c0,5.225,1.045,10.449,1.045,15.673C329.404,398.106,328.359,463.935,304.327,486.922z"/>
<path style="fill:#ACB3BA;" d="M324.18,335.412c-24.033,3.135-48.065,4.18-73.143,4.18s-49.11-1.045-73.143-4.18
	c0-5.224,1.045-10.449,1.045-15.673c45.976,5.225,97.176,5.225,143.151,0C323.135,324.963,324.18,330.188,324.18,335.412z"/>
<g>
	<circle style="fill:#FFFFFF;" cx="142.367" cy="68.963" r="24.033"/>
	<circle style="fill:#FFFFFF;" cx="265.665" cy="161.959" r="24.033"/>
	<circle style="fill:#FFFFFF;" cx="126.694" cy="225.698" r="24.033"/>
	<circle style="fill:#FFFFFF;" cx="300.147" cy="44.931" r="24.033"/>
	<circle style="fill:#FFFFFF;" cx="396.278" cy="217.339" r="24.033"/>
</g>
<g>
</g>
<g>
</g>
<g>
</g>
<g>
</g>
<g>
</g>
<g>
</g>
<g>
</g>
<g>
</g>
<g>
</g>
<g>
</g>
<g>
</g>
<g>
</g>
<g>
</g>
<g>
</g>
<g>
</g>
</svg>
